<svg width="7" height="12" viewBox="0 0 7 12" fill="none" xmlns="http://www.w3.org/2000/svg">
<path d="M1.46941 11.5C1.71488 11.5 1.92199 11.4156 2.09075 11.2469L6.68559 6.69805C6.90037 6.49093 7.00009 6.26848 7.00009 6C7.00009 5.73152 6.90037 5.50139 6.69326 5.30195L2.09075 0.753138C1.92199 0.584379 1.71488 0.5 1.46941 0.5C0.978474 0.5 0.57959 0.891213 0.57959 1.38215C0.57959 1.62762 0.679311 1.85007 0.85574 2.03417L4.89061 6.00767L0.85574 9.9735C0.679311 10.1499 0.57959 10.3724 0.57959 10.6179C0.57959 11.1088 0.978474 11.5 1.46941 11.5Z" fill="#3C3C43" fill-opacity="0.3"/>
</svg>
