<svg width="24" height="22" viewBox="0 0 24 22" fill="#bbb" fill-opacity="0.6" xmlns="http://www.w3.org/2000/svg" stroke="">
<path d="M10.564 15.7466C11.9419 15.7466 13.2285 15.2983 14.2744 14.5513L18.209 18.4858C18.3916 18.6685 18.6323 18.7598 18.8813 18.7598C19.4209 18.7598 19.811 18.3447 19.811 17.8135C19.811 17.5645 19.728 17.332 19.5454 17.1494L15.6357 13.2314C16.4575 12.1523 16.9473 10.8159 16.9473 9.36328C16.9473 5.85205 14.0752 2.97998 10.564 2.97998C7.04443 2.97998 4.18066 5.85205 4.18066 9.36328C4.18066 12.8745 7.04443 15.7466 10.564 15.7466ZM10.564 14.3687C7.81641 14.3687 5.55859 12.1025 5.55859 9.36328C5.55859 6.62402 7.81641 4.35791 10.564 4.35791C13.3032 4.35791 15.5693 6.62402 15.5693 9.36328C15.5693 12.1025 13.3032 14.3687 10.564 14.3687Z" />
</svg>
