<svg width="237" height="27" viewBox="0 0 237 27" fill="none" xmlns="http://www.w3.org/2000/svg">
<path d="M23.796 21.5L13.248 0.799998L2.7 21.5L0.396 26H5.436L7.74 21.5L13.248 10.7L18.756 21.5L21.06 26H26.1L23.796 21.5ZM50.1359 7.748V7.604C50.1359 3.86 47.0759 0.799998 43.3319 0.799998H33.1079C29.3639 0.799998 26.3399 3.86 26.3399 7.604V7.748C26.3399 9.188 26.7719 10.52 27.5279 11.6C27.7799 11.996 28.0679 12.356 28.3919 12.68C29.6159 13.868 31.2719 14.588 33.1079 14.588H42.1799C44.0879 14.588 45.6719 16.136 45.6719 18.044C45.6719 19.952 44.0879 21.5 42.1799 21.5H34.2959C32.3879 21.5 30.8399 19.952 30.8399 18.044H26.3399C26.3399 22.436 29.9039 26 34.2959 26H42.1799C46.5719 26 50.1359 22.436 50.1359 18.044C50.1359 16.136 49.4519 14.372 48.3359 13.004C48.2279 12.896 48.1559 12.788 48.0479 12.68C46.6079 11.096 44.5199 10.088 42.1799 10.088H33.1079C31.8479 10.088 30.8039 9.044 30.8039 7.784V7.64C30.8039 6.38 31.8479 5.336 33.1079 5.336H43.3319C44.5919 5.336 45.6359 6.38 45.6359 7.64V7.784L50.1359 7.748ZM77.5578 7.748V7.604C77.5578 3.86 74.4978 0.799998 70.7538 0.799998H60.5298C56.7858 0.799998 53.7618 3.86 53.7618 7.604V7.748C53.7618 9.188 54.1938 10.52 54.9498 11.6C55.2018 11.996 55.4898 12.356 55.8138 12.68C57.0378 13.868 58.6938 14.588 60.5298 14.588H69.6018C71.5098 14.588 73.0938 16.136 73.0938 18.044C73.0938 19.952 71.5098 21.5 69.6018 21.5H61.7178C59.8098 21.5 58.2618 19.952 58.2618 18.044H53.7618C53.7618 22.436 57.3258 26 61.7178 26H69.6018C73.9938 26 77.5578 22.436 77.5578 18.044C77.5578 16.136 76.8738 14.372 75.7578 13.004C75.6498 12.896 75.5778 12.788 75.4698 12.68C74.0298 11.096 71.9418 10.088 69.6018 10.088H60.5298C59.2698 10.088 58.2258 9.044 58.2258 7.784V7.64C58.2258 6.38 59.2698 5.336 60.5298 5.336H70.7538C72.0138 5.336 73.0578 6.38 73.0578 7.64V7.784L77.5578 7.748ZM87.9517 5.3H106.348V0.799998H87.9517C84.2077 0.799998 81.1837 3.86 81.1837 7.604V19.196C81.1837 22.94 84.2077 26 87.9517 26H106.348V21.5H87.9517C86.6917 21.5 85.6477 20.456 85.6477 19.196V14.444H101.848V9.944H85.6477V7.604C85.6477 6.344 86.6917 5.3 87.9517 5.3ZM109.941 0.835998V5.336H120.273V26.036H124.773V5.336H135.105V0.835998H109.941ZM170.342 0.799998H165.662L161.126 15.992L157.31 10.7L156.59 9.692L154.538 6.884L152.486 9.692L151.766 10.7L147.95 15.992L143.414 0.799998H138.734L144.602 20.564L146.222 25.964L149.534 21.392L154.502 14.516L159.506 21.392L162.818 26L164.438 20.564L170.342 0.799998ZM189.944 21.5L179.396 0.799998L168.848 21.5L166.544 26H171.584L173.888 21.5L179.396 10.7L184.904 21.5L187.208 26H192.248L189.944 21.5ZM205.91 0.799998L203.606 5.3L198.098 16.1L192.59 5.3L190.286 0.799998H185.246L187.55 5.3L198.098 26L208.646 5.3L210.95 0.799998H205.91ZM218.381 5.3H236.777V0.799998H218.381C214.637 0.799998 211.613 3.86 211.613 7.604V19.196C211.613 22.94 214.637 26 218.381 26H236.777V21.5H218.381C217.121 21.5 216.077 20.456 216.077 19.196V14.444H232.277V9.944H216.077V7.604C216.077 6.344 217.121 5.3 218.381 5.3Z" fill="white"/>
</svg>
